<svg version="1.2" xmlns="http://www.w3.org/2000/svg" viewBox="0 0 164 82" width="164" height="82">
	<title>1107188_8207</title>
	<style>
		.s2 { fill: #ffffff } 
	</style>
	<g id="g1">
		<g id="group-R5">
			<path id="path2" fill-rule="evenodd" class="s0" d="m-461 118v-384h384v384z"/>
			<path id="path6" class="s1" d="m47.6-93v1.1h-5.8v3.7h5.5v1.2h-5.5v3.8h5.9v1.2h-7.3v-11z"/>
			<path id="path7" class="s1" d="m50.2-82h-1.5l4.7-11h1.6l4.7 11h-1.6l-1.4-3.5h-3.7l0.4-1.1h2.8l-2.1-5z"/>
			<path id="path8" class="s1" d="m62.6-93v9.8h5.8v1.2h-7.2v-11z"/>
			<path id="path9" class="s1" d="m81.2-93v1.1h-5.8v3.7h5.5v1.2h-5.5v3.8h5.9v1.2h-7.3v-11z"/>
			<path id="path10" class="s1" d="m83.3-82.4v-1.3q1.7 0.6 3.7 0.6 2.9 0 2.9-2.1 0-1.8-2.1-1.8h-1.4q-3.5 0-3.5-3 0-3.1 4.4-3.1 2 0 3.6 0.4v1.3q-1.6-0.6-3.6-0.6-3 0-3 2 0 1.8 2.1 1.8h1.4q3.5 0 3.5 3 0 3.3-4.3 3.3-2 0-3.7-0.5z"/>
			<path id="path11" class="s1" d="m100.8-93v1.1h-3.4v9.9h-1.5v-9.9h-3.4v-1.1z"/>
			<path id="path12" class="s1" d="m101.7-82h-1.4l4.6-11h1.6l4.7 11h-1.5l-1.5-3.5h-3.6l0.4-1.1h2.7l-2-5z"/>
			<path id="path13" class="s1" d="m119-93v1.1h-3.4v9.9h-1.5v-9.9h-3.4v-1.1z"/>
			<path id="path14" class="s1" d="m127.9-93v1.1h-5.7v3.7h5.5v1.2h-5.5v3.8h5.9v1.2h-7.4v-11z"/>
			<path id="path15" class="s1" d="m25.6-77.2l0.8 1.6 0.9-1.6h0.7l-1.2 2.2v1.2h-0.7v-1.2l-1.2-2.2z"/>
			<path id="path16" class="s1" d="m31.5-73.8q-0.4 0-0.7-0.2-0.3-0.1-0.5-0.3-0.2-0.3-0.3-0.6-0.1-0.3-0.1-0.6 0-0.4 0.1-0.7 0.1-0.3 0.3-0.5 0.2-0.3 0.5-0.4 0.3-0.2 0.7-0.2 0.3 0 0.6 0.2 0.3 0.1 0.5 0.4 0.3 0.2 0.4 0.5 0.1 0.4 0.1 0.7 0 0.3-0.1 0.6-0.2 0.3-0.4 0.6-0.2 0.2-0.5 0.4-0.3 0.1-0.6 0.1zm-1-1.7q0 0.2 0.1 0.4 0.1 0.2 0.2 0.4 0.1 0.1 0.3 0.2 0.2 0.1 0.4 0.1 0.2 0 0.4-0.1 0.2-0.1 0.3-0.2 0.1-0.2 0.2-0.4 0-0.2 0-0.4 0-0.3 0-0.5-0.1-0.2-0.2-0.3-0.2-0.2-0.3-0.3-0.2-0.1-0.4-0.1-0.3 0-0.4 0.1-0.2 0.1-0.3 0.3-0.2 0.2-0.2 0.4-0.1 0.2-0.1 0.4z"/>
			<path id="path17" class="s1" d="m36.9-74.4q0.3 0 0.4-0.1 0.2-0.1 0.3-0.2 0.1-0.2 0.1-0.4 0.1-0.2 0.1-0.4v-1.7h0.6v1.7q0 0.4 0 0.7-0.1 0.3-0.3 0.5-0.2 0.2-0.5 0.4-0.3 0.1-0.6 0.1-0.5 0-0.7-0.1-0.3-0.2-0.5-0.4-0.2-0.3-0.3-0.6 0-0.3 0-0.6v-1.7h0.6v1.7q0 0.2 0.1 0.4 0 0.2 0.1 0.4 0.1 0.1 0.3 0.2 0.1 0.1 0.3 0.1z"/>
			<path id="path18" class="s1" d="m41-73.8v-3.4h1.5q0.3 0 0.5 0.1 0.2 0.1 0.3 0.2 0.1 0.2 0.2 0.4 0.1 0.2 0.1 0.4 0 0.3-0.2 0.6-0.1 0.3-0.4 0.4l0.8 1.3h-0.8l-0.7-1.2h-0.6v1.2zm0.6-1.7h0.9q0.1 0 0.1-0.1 0.1 0 0.2-0.1 0-0.1 0.1-0.2 0-0.1 0-0.2 0-0.1 0-0.2-0.1-0.1-0.1-0.2-0.1-0.1-0.2-0.1-0.1-0.1-0.2-0.1h-0.8z"/>
			<path id="path19" class="s1" d="m51.6-76.7h-1.1v2.9h-0.6v-2.9h-1.1v-0.5h2.8z"/>
			<path id="path20" class="s1" d="m53.3-73.8l1.4-3.4h0.5l1.3 3.4h-0.7l-0.3-0.9h-1.2l-0.3 0.9zm1.6-2.7l-0.5 1.4h1z"/>
			<path id="path21" class="s1" d="m61.1-74.2q-0.4 0.4-0.9 0.4-0.3 0-0.6-0.1-0.3-0.2-0.5-0.4-0.2-0.3-0.4-0.6-0.1-0.3-0.1-0.6 0-0.4 0.1-0.7 0.2-0.3 0.4-0.5 0.2-0.3 0.5-0.4 0.3-0.2 0.6-0.2 0.5 0 0.8 0.2 0.4 0.2 0.5 0.6l-0.5 0.4q-0.1-0.3-0.3-0.4-0.2-0.2-0.5-0.2-0.2 0-0.4 0.1-0.1 0.1-0.3 0.3-0.1 0.1-0.2 0.3 0 0.2 0 0.5 0 0.2 0 0.4 0.1 0.2 0.2 0.4 0.2 0.1 0.4 0.2 0.1 0.1 0.3 0.1 0.5 0 0.9-0.5v-0.2h-0.7v-0.5h1.2v1.8h-0.5z"/>
			<path id="path22" class="s1" d="m64.1-73.8v-3.4h0.7v2.8h1.7v0.6z"/>
			<path id="path23" class="s1" d="m68.9-73.8v-3.4h0.6v3.4z"/>
			<path id="path24" class="s1" d="m72.8-76v2.2h-0.7v-3.4h0.6l1.7 2.2v-2.2h0.7v3.4h-0.5z"/>
			<path id="path25" class="s1" d="m80.1-74.4v0.6h-2.4v-3.4h2.3v0.5h-1.6v0.9h1.4v0.5h-1.4v0.9z"/>
			<path id="path26" class="s1" d="m87.6-76.3q0-0.1-0.1-0.1-0.1-0.1-0.2-0.1-0.1-0.1-0.3-0.1-0.1-0.1-0.3-0.1-0.3 0-0.4 0.1-0.1 0.1-0.1 0.3 0 0.1 0 0.2 0.1 0.1 0.2 0.1 0.1 0.1 0.2 0.1 0.1 0 0.3 0.1 0.3 0.1 0.5 0.1 0.2 0.1 0.3 0.2 0.2 0.1 0.3 0.3 0 0.2 0 0.4 0 0.3-0.1 0.5-0.1 0.2-0.2 0.3-0.2 0.1-0.5 0.2-0.2 0-0.4 0-0.4 0-0.8-0.1-0.4-0.1-0.7-0.3l0.3-0.6q0.1 0 0.2 0.1 0.1 0.1 0.3 0.1 0.1 0.1 0.3 0.2 0.2 0 0.4 0 0.5 0 0.5-0.3 0-0.1 0-0.2-0.1-0.1-0.2-0.2-0.1 0-0.3-0.1-0.2 0-0.4-0.1-0.2 0-0.4-0.1-0.2-0.1-0.3-0.2-0.1-0.1-0.2-0.2 0-0.2 0-0.4 0-0.2 0.1-0.4 0.1-0.2 0.2-0.4 0.2-0.1 0.4-0.2 0.3-0.1 0.5-0.1 0.4 0 0.7 0.2 0.3 0.1 0.5 0.2z"/>
			<path id="path27" class="s1" d="m90.4-73.8v-3.4h1.5q0.2 0 0.4 0.1 0.2 0.1 0.4 0.2 0.1 0.2 0.2 0.4 0.1 0.2 0.1 0.4 0 0.2-0.1 0.4-0.1 0.2-0.2 0.4-0.2 0.1-0.4 0.2-0.2 0.1-0.4 0.1h-0.8v1.2zm0.7-1.7h0.7q0.2 0 0.3-0.2 0.2-0.1 0.2-0.4 0-0.1-0.1-0.2 0-0.1-0.1-0.2 0-0.1-0.1-0.1-0.1-0.1-0.2-0.1h-0.7z"/>
			<path id="path28" class="s1" d="m94.8-73.8l1.3-3.4h0.5l1.4 3.4h-0.7l-0.3-0.9h-1.2l-0.4 0.9zm1.7-2.7l-0.5 1.4h0.9z"/>
			<path id="path29" class="s1" d="m100-75.6q0-0.3 0.2-0.6 0.1-0.3 0.3-0.5 0.2-0.3 0.5-0.4 0.3-0.1 0.7-0.1 0.4 0 0.8 0.2 0.3 0.2 0.5 0.5l-0.6 0.3q0-0.1-0.1-0.2-0.1-0.1-0.2-0.2-0.1 0-0.2 0-0.1-0.1-0.2-0.1-0.3 0-0.5 0.1-0.1 0.1-0.3 0.3-0.1 0.2-0.1 0.4-0.1 0.2-0.1 0.4 0 0.2 0.1 0.4 0 0.2 0.2 0.4 0.1 0.1 0.3 0.2 0.2 0.1 0.4 0.1 0.1 0 0.2 0 0.1 0 0.2-0.1 0.1-0.1 0.2-0.2 0.1-0.1 0.2-0.2l0.5 0.3q-0.1 0.2-0.2 0.3-0.2 0.2-0.4 0.3-0.1 0.1-0.3 0.1-0.3 0.1-0.5 0.1-0.3 0-0.6-0.2-0.3-0.1-0.5-0.4-0.2-0.2-0.3-0.5-0.2-0.3-0.2-0.7z"/>
			<path id="path30" class="s1" d="m107.7-74.4v0.6h-2.3v-3.4h2.3v0.5h-1.7v0.9h1.5v0.5h-1.5v0.9z"/>
			<path id="path31" class="s1" d="m116.1-77.2v3.4h-0.7v-1.5h-1.5v1.5h-0.7v-3.4h0.7v1.3h1.5v-1.3z"/>
			<path id="path32" class="s1" d="m121.1-74.4v0.6h-2.4v-3.4h2.3v0.5h-1.6v0.9h1.4v0.5h-1.4v0.9z"/>
			<path id="path33" class="s1" d="m123.5-73.8v-3.4h1.5q0.3 0 0.5 0.1 0.2 0.1 0.3 0.2 0.2 0.2 0.2 0.4 0.1 0.2 0.1 0.4 0 0.3-0.1 0.6-0.2 0.3-0.5 0.4l0.8 1.3h-0.7l-0.8-1.2h-0.6v1.2zm0.7-1.7h0.8q0.1 0 0.2-0.1 0 0 0.1-0.1 0.1-0.1 0.1-0.2 0-0.1 0-0.2 0-0.1 0-0.2-0.1-0.1-0.1-0.2-0.1-0.1-0.2-0.1-0.1-0.1-0.1-0.1h-0.8z"/>
			<path id="path34" class="s1" d="m131-74.4v0.6h-2.3v-3.4h2.3v0.5h-1.7v0.9h1.5v0.5h-1.5v0.9z"/>
			<path id="path72" class="s2" d="m26.8 58.4h-7.3l47.6-52.5h7.3z"/>
			<path id="path73" class="s2" d="m52.4 58.4h-16.7l47.7-52.5h16.6z"/>
			<path id="path74" class="s2" d="m80 45.9h7.2v-7.2h-7.2z"/>
			<path id="path75" class="s2" d="m91.9 45.9h7.2v-7.2h-7.2z"/>
			<path id="path76" class="s2" d="m80 57.2h7.2v-7.2h-7.2z"/>
			<path id="path77" class="s2" d="m91.9 57.2h7.2v-7.2h-7.2z"/>
			<path id="path78" class="s2" d="m153.7 75c0 0-0.5-0.2-1.6-0.4-1.1-0.3-2.7-0.7-4.7-1.1-4.1-0.9-9.9-1.9-16.9-2.5-3.5-0.4-7.3-0.6-11.3-0.7-4-0.1-8.3 0-12.6 0.2q-3.3 0.2-6.6 0.5-1.7 0.1-3.4 0.3-1.7 0.2-3.4 0.4c-1.1 0.1-2.2 0.3-3.4 0.5-1.1 0.1-2.2 0.3-3.4 0.5-2.3 0.4-4.5 0.8-6.8 1.3l-3.4 0.7c-1.1 0.2-2.3 0.5-3.4 0.8l-1.7 0.4q-0.9 0.2-1.8 0.4-0.8 0.2-1.7 0.4c-0.6 0.1-1.2 0.3-1.8 0.4q-0.9 0.2-1.8 0.4-0.9 0.1-1.8 0.3-0.9 0.1-1.7 0.3-0.9 0.1-1.8 0.2-3.6 0.5-7.1 0.7c-4.6 0.3-9.1 0.1-13.4-0.3-4.3-0.5-8.2-1.4-11.8-2.6q-2.7-0.9-5-1.9c-1.5-0.7-3-1.4-4.3-2.2-2.6-1.5-4.7-3-6.4-4.4-1.6-1.4-2.7-2.6-3.5-3.4q-0.6-0.7-0.9-1-0.3-0.3-0.3-0.3c0 0 0.5 0.3 1.5 0.9 0.9 0.6 2.4 1.4 4.2 2.3 1.8 1 4.1 2 6.8 2.9 2.7 0.9 5.7 1.7 9.1 2.2 1.7 0.3 3.5 0.6 5.3 0.7 0.9 0.1 1.9 0.1 2.8 0.2q1.5 0 2.9 0c3.9 0.1 8.1-0.2 12.3-0.7 2.2-0.4 4.3-0.7 6.5-1.1q0.8-0.1 1.6-0.3 0.8-0.2 1.7-0.4 0.8-0.1 1.6-0.3 0.8-0.2 1.6-0.4c0.6-0.1 1.1-0.2 1.7-0.4q0.8-0.2 1.7-0.4l1.7-0.5 1.7-0.4c2.4-0.7 4.8-1.2 7.2-1.7 2.4-0.4 4.8-0.9 7.2-1.2l1.8-0.3q0.9-0.1 1.8-0.2c1.2-0.2 2.4-0.3 3.6-0.4q1.8-0.2 3.6-0.3 1.8-0.1 3.6-0.2c2.4 0 4.7-0.1 7 0 4.6 0.1 9 0.4 13.2 1 4.1 0.5 8 1.3 11.6 2.2 3.5 0.8 6.7 1.8 9.5 2.8 2.8 1 5.2 2 7.1 2.9 1.9 0.9 3.4 1.7 4.4 2.3 0.9 0.6 1.4 0.9 1.4 0.9z"/>
		</g>
	</g>
</svg>